<?xml version="1.0" standalone="no"?>
<!DOCTYPE svg PUBLIC "-//W3C//DTD SVG 20010904//EN"
 "http://www.w3.org/TR/2001/REC-SVG-20010904/DTD/svg10.dtd">
<svg version="1.0" xmlns="http://www.w3.org/2000/svg"
 width="800.000000pt" height="800.000000pt" viewBox="0 0 800.000000 800.000000"
 preserveAspectRatio="xMidYMid meet">

<g transform="translate(0.000000,800.000000) scale(0.100000,-0.100000)"
fill="#000000" stroke="none">
<path d="M4742 7921 c320 -190 490 -375 574 -623 37 -110 38 -117 38 -258 1
-140 0 -148 -32 -235 -61 -167 -172 -332 -338 -505 -324 -335 -800 -638 -1314
-836 -407 -157 -830 -216 -1179 -164 -157 23 -215 38 -331 86 -255 105 -396
323 -418 649 l-8 110 -8 -92 c-23 -268 61 -514 232 -674 123 -117 289 -188
547 -236 79 -14 150 -18 340 -18 252 0 306 6 584 61 68 14 125 23 127 21 8 -8
-204 -106 -381 -177 -325 -130 -560 -172 -1265 -225 -237 -18 -367 -37 -525
-76 -347 -87 -646 -259 -910 -524 -166 -165 -317 -368 -400 -536 l-36 -74 33
36 c18 19 64 71 103 114 38 43 112 113 165 154 294 235 627 379 1068 465 267
52 648 81 871 66 l84 -5 -110 -82 c-386 -286 -588 -604 -654 -1028 -7 -44 -12
-152 -12 -240 1 -351 92 -724 293 -1210 23 -55 46 -104 51 -109 5 -6 9 69 9
180 -1 798 312 1386 970 1823 313 207 704 388 1465 678 656 250 1089 511 1430
864 597 618 714 1319 314 1889 -238 339 -743 631 -1314 760 -77 17 -149 33
-160 36 -11 3 33 -26 97 -65z"/>
<path d="M2426 7937 c10 -12 24 -27 30 -32 6 -6 37 -46 69 -90 79 -110 131
-214 266 -528 181 -421 309 -578 491 -603 61 -9 158 4 164 21 3 7 -8 42 -24
77 -134 286 -206 437 -246 516 -37 75 -42 90 -26 80 44 -27 236 -298 310 -435
18 -35 37 -63 41 -63 18 0 10 224 -10 302 -62 241 -256 450 -557 601 -152 76
-316 131 -507 172 -18 3 -18 3 -1 -18z"/>
<path d="M4530 7519 c-274 -70 -550 -229 -676 -387 -100 -127 -151 -297 -128
-432 l9 -55 61 125 c65 132 140 243 189 282 l30 23 -27 -45 c-90 -155 -183
-381 -202 -492 -6 -36 -5 -38 33 -58 48 -24 111 -26 157 -4 53 25 153 141 220
255 34 57 114 208 178 336 121 243 171 331 238 420 23 29 39 55 37 57 -2 3
-56 -9 -119 -25z"/>
<path d="M6431 6794 c111 -452 114 -675 14 -1045 -40 -150 -114 -341 -229
-592 -131 -287 -161 -402 -160 -622 1 -157 19 -266 81 -475 36 -122 46 -171
47 -232 1 -72 -1 -79 -29 -108 -39 -41 -80 -57 -190 -76 -178 -30 -273 -64
-295 -103 -14 -28 -12 -84 6 -155 10 -36 14 -85 12 -120 -4 -50 -9 -63 -32
-81 -29 -23 -106 -45 -160 -45 -18 0 -35 -2 -37 -5 -3 -2 -1 -40 3 -82 10 -93
4 -139 -21 -153 -11 -5 -62 -16 -114 -24 -52 -8 -104 -19 -115 -25 -40 -21
-64 -72 -96 -203 -35 -144 -59 -198 -103 -240 -40 -38 -78 -50 -158 -50 -133
1 -227 37 -463 180 -237 144 -367 192 -517 192 -73 0 -76 -2 -167 -110 -334
-398 -310 -768 84 -1303 75 -102 86 -115 404 -497 282 -338 445 -548 559 -719
l67 -101 119 0 c65 0 119 3 119 8 0 4 -16 68 -36 142 -53 200 -92 401 -104
535 -33 347 83 625 355 852 72 60 125 97 130 91 3 -2 -16 -67 -40 -144 -49
-152 -108 -423 -124 -576 -18 -161 -14 -439 8 -564 21 -122 56 -262 76 -311
l14 -33 151 0 151 0 -8 53 c-4 28 -7 142 -7 252 0 385 44 623 202 1097 56 168
87 214 112 168 6 -12 31 -117 55 -233 23 -117 57 -263 74 -325 127 -458 346
-783 654 -971 l68 -42 141 3 140 3 -66 80 c-186 222 -269 404 -297 655 -12
110 -10 256 11 700 7 135 10 357 7 495 -6 288 -17 351 -92 560 -25 72 -49 139
-52 150 -7 21 206 -172 336 -305 240 -244 400 -498 490 -774 70 -214 73 -353
17 -681 -13 -77 -27 -167 -30 -200 -4 -32 -9 -69 -12 -82 -4 -13 -2 -23 4 -23
14 0 123 249 180 415 32 91 80 299 93 400 14 109 6 386 -14 465 -61 240 -153
403 -445 786 -97 128 -176 280 -197 379 -16 75 -19 125 -9 125 4 0 52 -24 108
-54 104 -55 239 -104 361 -132 85 -19 540 -31 515 -14 -46 32 -156 93 -190
105 -138 49 -413 237 -535 366 -190 201 -311 465 -385 839 -43 219 -62 429
-85 965 -24 526 -64 851 -145 1160 -47 179 -92 298 -154 402 -84 142 -88 143
-55 7z"/>
<path d="M2983 6535 c-184 -40 -399 -178 -597 -384 -136 -140 -281 -331 -258
-339 5 -1 49 9 98 23 102 30 240 54 514 90 612 81 761 114 874 196 67 48 82
99 50 178 -18 46 -26 48 -224 57 -143 7 -346 -7 -463 -32 -81 -17 -80 -17 -73
-5 9 14 171 70 249 87 38 8 131 19 207 26 76 7 136 16 134 20 -11 17 -127 69
-186 83 -77 18 -241 18 -325 0z"/>
<path d="M972 5870 c-40 -11 -123 -42 -185 -69 -62 -27 -149 -61 -195 -74
l-83 -24 58 -25 c128 -57 272 -88 408 -88 153 0 244 42 265 121 19 71 -14 133
-89 165 -43 18 -89 17 -179 -6z"/>
<path d="M513 5260 c-33 -17 -81 -49 -107 -71 -46 -40 -92 -97 -84 -104 2 -2
46 5 98 17 192 41 311 123 258 176 -23 23 -101 14 -165 -18z"/>
</g>
</svg>
