<svg width="42" height="42" viewBox="0 0 42 42" fill="none" xmlns="http://www.w3.org/2000/svg">
<g clip-path="url(#clip0_55183_159211)">
<path d="M36.4464 13.2718H37.2293C39.8761 13.2718 42.0258 15.4178 42.0258 18.06V23.9398C42.0258 26.582 39.8761 28.728 37.2293 28.728H30.9415C29.4504 28.728 28.7421 29.4847 28.7421 30.9236V37.2004C28.7421 39.8425 26.5923 41.9885 23.9455 41.9885H18.0554C15.4086 41.9885 13.2589 39.8425 13.2589 37.2004C13.2589 37.2004 13.2589 32.499 13.2589 30.9236C13.2589 29.3606 12.4885 28.728 11.047 28.728H4.79656C2.14975 28.7156 0 26.5696 0 23.9274V18.0476C0 15.4054 2.14975 13.2594 4.79656 13.2594H11.0719C12.4636 13.2594 13.2837 12.4779 13.2837 11.0266V4.79942C13.2837 2.15723 15.4335 0.0112305 18.0803 0.0112305H23.9704C26.6172 0.0112305 28.7669 2.15723 28.7669 4.79942V11.039C28.7669 12.5647 29.3261 13.2718 30.9291 13.2718H32.0351L28.8042 17.6754C26.3314 17.477 24.3556 15.4054 24.3556 12.8873V6.63531C24.3556 5.10954 23.7716 4.41488 22.1313 4.41488H19.8945C18.5028 4.41488 17.6951 5.15916 17.6951 6.63531V12.8873C17.6951 15.5294 15.5453 17.6754 12.8985 17.6754H6.63566C5.02023 17.6754 4.41134 18.7298 4.41134 19.9083V22.1163C4.41134 23.4436 5.21906 24.3243 6.6108 24.3243H12.8985C15.5453 24.3243 17.6951 26.4703 17.6951 29.1125V35.3769C17.6951 36.791 18.4034 37.5849 19.8697 37.5849H22.1189C23.5106 37.5849 24.3432 36.7414 24.3432 35.3521V29.1125C24.3432 26.4703 26.4929 24.3243 29.1397 24.3243H35.4274C36.9435 24.3243 37.6269 23.5552 37.6269 22.0915V19.8835C37.6269 18.3701 36.8316 17.6754 35.3777 17.6754H33.2156L36.4464 13.2718Z" fill="url(#paint0_linear_55183_159211)"/>
</g>
<defs>
<linearGradient id="paint0_linear_55183_159211" x1="16.6972" y1="51.1538" x2="37.8423" y2="7.53648" gradientUnits="userSpaceOnUse">
<stop stop-color="#FF00D5"/>
<stop offset="0.187441" stop-color="#D438A2"/>
<stop offset="0.316217" stop-color="#B240E5"/>
<stop offset="0.541913" stop-color="#8168F0"/>
<stop offset="0.692074" stop-color="#8168F0"/>
<stop offset="0.9906" stop-color="#87DEFC"/>
</linearGradient>
<clipPath id="clip0_55183_159211">
<rect width="42" height="42" fill="white"/>
</clipPath>
</defs>
</svg>
