<!-- icon666.com - MILLIONS vector ICONS FREE --><svg viewBox="0 0 426.66667 426.66667" xmlns="http://www.w3.org/2000/svg"><path d="m384 426.667969h-341.332031c-23.46875 0-42.667969-19.203125-42.667969-42.667969v-341.332031c0-23.46875 19.199219-42.667969 42.667969-42.667969h341.332031c23.464844 0 42.667969 19.199219 42.667969 42.667969v341.332031c0 23.464844-19.203125 42.667969-42.667969 42.667969zm-341.332031-405.335938c-11.734375 0-21.335938 9.601563-21.335938 21.335938v341.332031c0 11.734375 9.601563 21.332031 21.335938 21.332031h341.332031c11.734375 0 21.332031-9.597656 21.332031-21.332031v-341.332031c0-11.734375-9.597656-21.335938-21.332031-21.335938zm0 0"></path><path d="m286.871094 124.707031 15.085937 15.085938-162.160156 162.160156-15.085937-15.085937zm0 0"></path><path d="m139.804688 124.703125 162.164062 162.160156-15.085938 15.085938-162.164062-162.160157zm0 0"></path></svg>